#!OML:ASF H:\Terrain\Walking\May29\JustinRory\Justin.ASF
:FULLY-SPECIFIED
:DEGREES
190
root 12.1161 9.97412 8.19796 -35.7707 -60.0817 4.33485
lowerback 39.8358 4.39905 -3.61838
upperback 13.4305 2.87711 0.600277
thorax -4.4973 0.715301 1.47407
lowerneck 5.03918 -16.7519 -17.8729
upperneck 9.8266 -26.3763 23.7268
head 7.88775 -13.0806 8.06667
rclavicle -1.78161e-014 6.48038e-014
rhumerus -13.4978 -3.31656 -97.7894
rradius 62.9651
rwrist 28.0584
rhand -23.7324 18.0639
rfingers 7.12502
rthumb 2.73583 -11.8983
lclavicle -1.78161e-014 6.48038e-014
lhumerus -46.5085 -18.1198 102.787
lradius 59.6929
lwrist 32.6621
lhand -20.9722 56.4825
lfingers 7.12502
lthumb 5.40114 86.3937
rfemur -59.3852 -11.6763 7.2822
rtibia 99.8013
rfoot -0.0743581 8.98572
rtoes 12.2309
lfemur -55.9451 9.05515 -2.06906
ltibia 95.6523
lfoot -3.35512 -17.5592
ltoes -11.9805
191
root 12.1321 9.98871 8.18576 -35.1111 -60.0909 3.48707
lowerback 40.5112 4.31757 -3.07626
upperback 13.4649 2.92858 0.625299
thorax -4.64766 0.745747 1.18854
lowerneck 5.09744 -16.8533 -17.8802
upperneck 9.31405 -26.5061 24.2379
head 7.82804 -13.1555 8.21307
rclavicle 5.3324e-014 -4.29375e-014
rhumerus -14.845 -2.82656 -97.518
rradius 64.8138
rwrist 27.0462
rhand -24.0749 18.703
rfingers 7.12502
rthumb 2.40498 -11.2632
lclavicle 5.3324e-014 -4.29375e-014
lhumerus -46.2719 -18.4003 102.749
lradius 59.6332
lwrist 32.5874
lhand -21.388 56.5203
lfingers 7.12502
lthumb 4.99975 86.4414
rfemur -59.0534 -11.6775 7.60321
rtibia 99.6759
rfoot 0.0110537 8.63131
rtoes 11.8367
lfemur -55.8007 8.739 -1.58642
ltibia 95.3181
lfoot -3.60393 -18.0263
ltoes -15.2952
192
root 12.1482 10.0015 8.17512 -34.3943 -60.0486 2.66485
lowerback 41.1488 4.20621 -2.47986
upperback 13.475 2.97626 0.621354
thorax -4.80446 0.779266 0.847377
lowerneck 5.14651 -16.9397 -17.8943
upperneck 8.80779 -26.6344 24.8444
head 7.7908 -13.23 8.39148
rclavicle -3.37437e-014 -1.59028e-014
rhumerus -13.6077 -3.45894 -97.829
rradius 62.8378
rwrist 27.1454
rhand -25.6153 20.3775
rfingers 7.12502
rthumb 0.917292 -9.60025
lclavicle -3.37437e-014 -1.59028e-014
lhumerus -46.1348 -18.5755 102.627
lradius 59.6468
lwrist 32.4372
lhand -21.4988 56.1427
lfingers 7.12502
lthumb 4.89275 86.0662
rfemur -58.885 -11.8105 7.92771
rtibia 99.4875
rfoot -0.114707 8.2499
rtoes 9.91571
lfemur -55.651 8.30355 -1.08507
ltibia 94.8901
lfoot -2.99097 -18.3874
ltoes -14.6041
193
root 12.1661 10.0167 8.16479 -33.8955 -59.918 2.14605
lowerback 41.797 4.07416 -1.95522
upperback 13.4528 2.96878 0.487155
thorax -4.98815 0.790315 0.426409
lowerneck 5.17972 -17.085 -17.7172
upperneck 8.34621 -26.8136 25.2884
head 7.72917 -13.3254 8.47896
rclavicle -8.49804e-015 4.03533e-014
rhumerus -14.136 -3.23583 -98.0748
rradius 63.441
rwrist 25.2008
rhand -27.8675 20.0643
rfingers 7.12502
rthumb -1.2579 -9.91174
lclavicle -8.49804e-015 4.03533e-014
lhumerus -46.0009 -18.7034 102.362
lradius 59.6257
lwrist 32.336
lhand -21.5979 55.6608
lfingers 7.12502
lthumb 4.79709 85.5865
rfemur -58.6949 -11.9223 7.97664
rtibia 99.2415
rfoot -0.201334 7.78016
rtoes 11.6489
lfemur -55.5668 7.81746 -0.782944
ltibia 94.3915
lfoot -2.27243 -18.5792
ltoes -10.8892
194
root 12.1787 10.0264 8.15202 -33.912 -59.7281 2.06067
lowerback 42.527 4.06138 -1.74622
upperback 13.4464 2.9766 0.336119
thorax -5.1836 0.796428 0.141746
lowerneck 5.17459 -17.2569 -17.4215
upperneck 7.96073 -26.9845 25.4801
head 7.63666 -13.412 8.46545
rclavicle -1.16289e-014 -9.54166e-015
rhumerus -14.7901 -4.39418 -97.5039
rradius 64.2151
rwrist 28.1369
rhand -26.1754 21.4096
rfingers 7.12502
rthumb 0.376343 -8.56981
lclavicle -1.16289e-014 -9.54166e-015
lhumerus -45.7871 -18.6752 102.083
lradius 59.4197
lwrist 32.1342
lhand -21.4387 55.2632
lfingers 7.12502
lthumb 4.95074 85.1854
rfemur -58.3476 -11.8622 7.6625
rtibia 99.0477
rfoot -0.205192 7.64687
rtoes 14.8566
lfemur -55.3492 7.43024 -0.675891
ltibia 93.8193
lfoot -1.93313 -18.9652
ltoes -9.53555
